<svg width="32" height="32" viewBox="0 0 8.4666665 8.4666669" version="1.1" 
  xmlns="http://www.w3.org/2000/svg">
  <g transform="translate(0,-288.53332)">
    <path fill="#d99000" d="M 3.8984375,2 C 2.8650448,2 2,2.863086 2,3.8964844 V 28.101562 C 2,29.134961 2.8650448,30 3.8984375,30 H 14 V 28 H 4.0019531 V 4 H 28 l 0,10 h 2 L 30,3.8964844 C 30,2.863086 29.136908,2 28.103516,2 Z" transform="matrix(0.26458333,0,0,0.26458333,0,288.53332)" />
    <path fill="#d99000" d="m 5.8208334,292.76666 v 1.5875 h -1.5875 v 1.05833 h 1.5875 v 1.5875 h 1.0583333 v -1.5875 h 1.5875001 v -1.05833 H 6.8791667 v -1.5875 z" />
    <path fill="none" stroke="#d99000" stroke-width="0.26458333" d="m 1.5875,291.44373 0.5291666,-1.05833 0.5291667,1.05833 0.5291667,-1.05833 0.5291666,1.05833 0.5291667,-1.05833 0.5291666,1.05833 0.5291667,-1.05833 0.5291667,1.05833 0.5291666,-1.05833 0.5291667,1.05833" />
    <path fill="none" stroke="#d99000" stroke-width="0.26458333" d="m 1.5875001,293.29582 0.5291666,-1.05833 0.5291667,1.05833 0.5291667,-1.05833 0.5291666,1.05833 0.5291667,-1.05833 0.5291666,1.05833" />
    <path fill="none" stroke="#d99000" stroke-width="0.26458333" d="M 1.5875,295.1479 2.1166666,294.08957 2.6458333,295.1479 3.175,294.08957 3.7041666,295.1479" />
  </g>
</svg>
