<svg
  width="32" height="32" viewBox="0 0 8.4666665 8.4666669"
  version="1.1" baseProfile="full"
  xmlns="http://www.w3.org/2000/svg"
  xmlns:xlink="http://www.w3.org/1999/xlink"
  xmlns:ev="http://www.w3.org/2001/xml-events">
  >
  <g transform="translate(0,-288.53333)">
    <path fill="#ff0000" d="m 4.2322173,288.53333 c -2.3308832,0 -4.232217185,1.90356 -4.232217165,4.23445 0,2.33088 1.901333965,4.23221 4.232217165,4.23221 2.3308832,0 4.2344493,-1.90133 4.2344493,-4.23221 0,-2.33089 -1.9035661,-4.23445 -4.2344493,-4.23445 z" />
    <path fill="#fbffff" d="M 15.777344,6.0039062 C 14.560527,6.0295763 13.33795,6.2787069 12.171875,6.7617188 8.4404363,8.3073187 6.0019531,11.965028 6.0019531,16.003906 h 3.9999999 c 0,-2.432541 1.451867,-4.614024 3.699219,-5.544922 2.247352,-0.9308973 4.819011,-0.419281 6.539062,1.300782 1.720051,1.720063 2.231667,4.291679 1.300782,6.539062 C 20.610633,20.544996 18.430927,21.996479 16,21.998047 V 18 H 15 L 7.0000001,24 15,30 h 1 v -4.001953 c 4.037324,-0.0016 7.693172,-2.43968 9.238281,-6.169922 1.54561,-3.731452 0.685996,-8.040522 -2.169922,-10.8964844 -1.963443,-1.963448 -4.614018,-2.9842085 -7.291015,-2.9277344 z" transform="matrix(0.26458333,0,0,0.26458333,0,288.53333)" />
  </g>
</svg>
