<svg width="32" height="32" viewBox="0 0 8.4666665 8.4666669" version="1.1" 
  xmlns="http://www.w3.org/2000/svg">
  <g transform="translate(0,-288.53332)">
    <path fill="#d99000" d="m 1.5875,294.35415 c -0.5813343,0 -1.05833332,0.47567 -1.05833332,1.05748 0,0.5818 0.47699902,1.05919 1.05833332,1.05919 0.5813342,0 1.0583333,-0.47739 1.0583333,-1.05919 0,-0.58181 -0.4769991,-1.05748 -1.0583333,-1.05748 z" />
    <path fill="#d99000" d="M 23 0 L 23 4.0058594 L 15.521484 4.0058594 C 8.343454 4.0058594 4.2594627 8.1768487 4.0703125 15.357422 L 4 18.013672 L 4 20.005859 L 8 20.005859 L 8 18.013672 L 8.0703125 15.357422 C 8.1921074 10.733812 11.396505 8 15.521484 8 L 23 8 L 23 12 L 24 12 L 29.988281 6.1171875 L 29.980469 5.5917969 L 24 0 L 23 0 z " transform="matrix(0.26458333,0,0,0.26458333,0,288.53332)" />
  </g>
</svg>
