<svg
  width="32" height="32" viewBox="0 0 8.4666665 8.4666669"
  version="1.1" baseProfile="full"
  xmlns="http://www.w3.org/2000/svg"
  xmlns:xlink="http://www.w3.org/1999/xlink"
  xmlns:ev="http://www.w3.org/2001/xml-events">
  >
  <g transform="translate(0,-288.53332)">
    <path fill="#d99000" d="m 3.7041667,291.17915 c -0.5813343,0 -1.0583334,0.47567 -1.0583334,1.05748 0,0.5818 0.4769991,1.05919 1.0583334,1.05919 0.5813342,0 1.0583333,-0.47739 1.0583333,-1.05919 0,-0.58181 -0.4769991,-1.05748 -1.0583333,-1.05748 z" />
    <path fill="#d99000" d="m 6.9999997e-8,288.53332 v 1.05833 H 1.5875 c 1e-7,0 0.6172497,5.2e-4 0.925525,5.2e-4 0.3346328,0 0.6635252,0.034 0.6635252,0.66094 l 0,0.39688 h 1.0567831 l 0,-0.65371 c -1e-7,-1.06635 -0.7124176,-1.46296 -1.7203083,-1.46296 H 1.5875001 Z" />
    <path fill="#d99000" d="M 12.005859 20 L 12.005859 22.470703 C 12.005859 26.50104 14.698462 28 18.507812 28 L 22.005859 28 L 23 28 L 23 32 L 24 32 L 29.988281 26.117188 L 29.980469 25.591797 L 24 20 L 23 20 L 23 24 L 22.005859 24 C 22.005859 24 19.672947 23.998047 18.507812 23.998047 C 17.243059 23.998047 16 23.869537 16 21.5 L 16 20 L 12.005859 20 z " transform="matrix(0.26458333,0,0,0.26458333,0,288.53332)" />
  </g>
</svg>
