<svg
  width="32" height="32" viewBox="0 0 8.4666665 8.4666669"
  version="1.1" baseProfile="full"
  xmlns="http://www.w3.org/2000/svg"
  xmlns:xlink="http://www.w3.org/1999/xlink"
  xmlns:ev="http://www.w3.org/2001/xml-events">
  >
  <g transform="translate(0,-288.53332)">
    <path fill="#d99000" d="m 6.6145834,294.35415 c -0.5813343,0 -1.0583334,0.47567 -1.0583334,1.05748 0,0.5818 0.4769991,1.05919 1.0583334,1.05919 0.5813342,0 1.0583333,-0.47739 1.0583333,-1.05919 0,-0.58181 -0.4769991,-1.05748 -1.0583333,-1.05748 z" />
    <path fill="#d99000" d="M 2 2 L 2 5.9941406 L 4 5.9941406 L 15.478516 5.9941406 C 19.603495 5.9941406 22.807893 8.7279531 22.929688 13.351562 L 22.947266 14 L 19 14 L 19 15 L 24.712891 21.009766 L 25.238281 21.009766 L 31 15 L 31 14 L 26.947266 14 L 26.929688 13.351562 C 26.740537 6.1709893 22.656546 2 15.478516 2 L 4 2 L 2 2 z " transform="matrix(0.26458333,0,0,0.26458333,0,288.53332)" />
  </g>
</svg>
